<svg xmlns="http://www.w3.org/2000/svg" viewBox="0 0 135.4 26.01"><defs><style>.cls-1{fill:#ffc062;}</style></defs><g id="Layer_2" data-name="Layer 2"><g id="Layer_3" data-name="Layer 3"><path class="cls-1" d="M16.63,17.27l.44.44a4.83,4.83,0,0,1-2.81,8.2A12.73,12.73,0,0,1,4,22.54H4l-.28-.26a12.73,12.73,0,0,1,9-21.7c4.69,0,7,5.76,3.82,9.19h0A5.41,5.41,0,0,0,16.63,17.27Z"/><path class="cls-1" d="M98.92,17.27l.43.44a4.82,4.82,0,0,1-2.8,8.2,12.72,12.72,0,0,1-10.26-3.37h0L86,22.29A12.73,12.73,0,0,1,95,.59c4.7,0,7,5.76,3.83,9.19h0A5.39,5.39,0,0,0,98.92,17.27Z"/><path d="M120.85,19.84l-3.65,4.54c-2.38,3-6.53,1.68-7.38-2.39A19.23,19.23,0,0,1,113,6.7h0l.25-.35c5.1-6.35,13.36-6.35,18.47,0a18.69,18.69,0,0,1,3.36,15c-.87,4.62-5.58,6.12-8.24,2.72l-3.32-4.23A1.61,1.61,0,0,0,120.85,19.84Z"/><path d="M43.6,13.32a4.63,4.63,0,0,1,3.78,7.3,12.67,12.67,0,0,1-10,5.37L37,26a12.7,12.7,0,0,1-12.7-12.69c0-7,2.19-15.75,11.23-12.69,3.19,1.08,4.18,5.86,3,9.61a2.35,2.35,0,0,0,2.23,3.08Z"/><path d="M73.47,13.32a4.63,4.63,0,0,1,3.78,7.3,12.67,12.67,0,0,1-10,5.37l-.37,0a12.7,12.7,0,0,1-12.7-12.69c0-7,2.19-15.75,11.23-12.69,3.19,1.08,4.18,5.86,3,9.61a2.36,2.36,0,0,0,2.24,3.08Z"/></g></g></svg>